<svg width="24" height="16" viewBox="0 0 24 16" fill="none" xmlns="http://www.w3.org/2000/svg">
<path fill-rule="evenodd" clip-rule="evenodd" d="M1.69995 15.9996C1.48328 15.9996 1.30412 15.9288 1.16245 15.7871C1.02078 15.6454 0.949951 15.4663 0.949951 15.2496V13.6496C0.949951 13.0663 1.09995 12.5371 1.39995 12.0621C1.69995 11.5871 2.11662 11.2329 2.64995 10.9996C3.86662 10.4663 4.96245 10.0829 5.93745 9.84961C6.91245 9.61628 7.91662 9.49961 8.94995 9.49961C9.98328 9.49961 10.9833 9.61628 11.95 9.84961C12.9166 10.0829 14.0083 10.4663 15.225 10.9996C15.7583 11.2329 16.1791 11.5871 16.4875 12.0621C16.7958 12.5371 16.95 13.0663 16.95 13.6496V15.2496C16.95 15.4663 16.8791 15.6454 16.7375 15.7871C16.5958 15.9288 16.4166 15.9996 16.2 15.9996H1.69995ZM8.94995 7.97461C7.84995 7.97461 6.94995 7.62461 6.24995 6.92461C5.54995 6.22461 5.19995 5.32461 5.19995 4.22461C5.19995 3.12461 5.54995 2.22461 6.24995 1.52461C6.94995 0.82461 7.84995 0.474609 8.94995 0.474609C10.05 0.474609 10.95 0.82461 11.65 1.52461C12.35 2.22461 12.7 3.12461 12.7 4.22461C12.7 5.32461 12.35 6.22461 11.65 6.92461C10.95 7.62461 10.05 7.97461 8.94995 7.97461ZM15.45 14.4996V13.6496C15.45 13.3829 15.3708 13.1246 15.2125 12.8746C15.0541 12.6246 14.8583 12.4496 14.625 12.3496C13.425 11.8163 12.4166 11.4579 11.6 11.2746C10.7833 11.0913 9.89995 10.9996 8.94995 10.9996C7.99995 10.9996 7.11245 11.0913 6.28745 11.2746C5.46245 11.4579 4.44995 11.8163 3.24995 12.3496C3.01662 12.4496 2.82495 12.6246 2.67495 12.8746C2.52495 13.1246 2.44995 13.3829 2.44995 13.6496V14.4996H15.45ZM8.94995 6.47461C9.59995 6.47461 10.1375 6.26211 10.5625 5.83711C10.9875 5.41211 11.2 4.87461 11.2 4.22461C11.2 3.57461 10.9875 3.03711 10.5625 2.61211C10.1375 2.18711 9.59995 1.97461 8.94995 1.97461C8.29995 1.97461 7.76245 2.18711 7.33745 2.61211C6.91245 3.03711 6.69995 3.57461 6.69995 4.22461C6.69995 4.87461 6.91245 5.41211 7.33745 5.83711C7.76245 6.26211 8.29995 6.47461 8.94995 6.47461Z" fill="#224DFF"/>
<path d="M17.95 4.22461C17.95 5.32461 17.6 6.22461 16.9 6.92461C16.2 7.62461 15.3 7.97461 14.2 7.97461C14.0166 7.97461 13.8125 7.96211 13.5875 7.93711C13.3625 7.91211 13.1583 7.86628 12.975 7.79961C13.375 7.38294 13.6791 6.87044 13.8875 6.26211C14.0958 5.65378 14.2 4.97461 14.2 4.22461C14.2 3.47461 14.0958 2.81211 13.8875 2.23711C13.6791 1.66211 13.375 1.13294 12.975 0.64961C13.1583 0.59961 13.3625 0.557943 13.5875 0.52461C13.8125 0.491276 14.0166 0.474609 14.2 0.474609C15.3 0.474609 16.2 0.82461 16.9 1.52461C17.6 2.22461 17.95 3.12461 17.95 4.22461Z" fill="#3E414D"/>
<path d="M17.9 15.9996C18.0666 15.9663 18.1999 15.8788 18.2999 15.7371C18.4 15.5954 18.45 15.4163 18.45 15.1996V13.6496C18.45 12.5996 18.1833 11.7371 17.65 11.0621C17.1166 10.3871 16.4166 9.84128 15.55 9.42461C16.7 9.55794 17.7833 9.75378 18.7999 10.0121C19.8166 10.2704 20.6416 10.5663 21.275 10.8996C21.8249 11.2163 22.2583 11.6079 22.575 12.0746C22.8916 12.5413 23.0499 13.0663 23.0499 13.6496V15.2496C23.0499 15.4663 22.9791 15.6454 22.8375 15.7871C22.6958 15.9288 22.5166 15.9996 22.2999 15.9996H17.9Z" fill="#3E414D"/>
</svg>
